<?xml version="1.0" encoding="UTF-8"?>
<svg width="30px" height="35.6221491px" viewBox="0 0 30 35.6221491" version="1.1" xmlns="http://www.w3.org/2000/svg" xmlns:xlink="http://www.w3.org/1999/xlink">
    <title>6CD7387C-E461-4CCA-9ED9-22A285DBA9E1</title>
    <g id="Page-1" stroke="none" stroke-width="1" fill="none" fill-rule="evenodd" stroke-linecap="round">
        <g id="Publications" transform="translate(-994, -353)" stroke="#0979FE" stroke-width="2">
            <g id="book-open-left" transform="translate(994, 353)">
                <path d="M17.5641375,0.192467895 L2.5641375,5.1924554 C1.03285556,5.70288671 0,7.13590999 0,8.75002415 L0,31.8692804 C0,33.0746932 0.57946043,34.2066195 1.5573439,34.9114344 C2.53522737,35.6162493 3.79230838,35.8080181 4.9358625,35.4268304 L19.9358625,30.4268429 C21.4671444,29.9164116 22.5,28.4833883 22.5,26.8692741 L22.5,3.7500179 C22.5,2.54460506 21.9205396,1.41267877 20.9426561,0.707863895 C19.9647726,0.0030490154 18.7076916,-0.188719804 17.5641375,0.192467895 Z" id="Path"></path>
                <path d="M3.75,35.6221491 L26.25,35.6221491 C28.3210678,35.6221491 30,33.943217 30,31.8721491 L30,9.37214915 C30,7.30108133 28.3210678,5.62214915 26.25,5.62214915 L22.5,5.62214915" id="Path"></path>
            </g>
        </g>
    </g>
</svg>